<?xml version="1.0" encoding="iso-8859-1"?>
<!-- Generator: Adobe Illustrator 18.0.0, SVG Export Plug-In . SVG Version: 6.00 Build 0)  -->
<!DOCTYPE svg PUBLIC "-//W3C//DTD SVG 1.1//EN" "http://www.w3.org/Graphics/SVG/1.1/DTD/svg11.dtd">
<svg version="1.1" id="Capa_1" xmlns="http://www.w3.org/2000/svg" xmlns:xlink="http://www.w3.org/1999/xlink" x="0px" y="0px"
	 viewBox="0 0 420.333 420.333" style="enable-background:new 0 0 420.333 420.333;" xml:space="preserve">
<g>
	<path d="M350.761,414.694l-125.255-279.11c-0.905-2.016-3.274-2.914-5.287-2.012c-2.016,0.904-2.916,3.271-2.012,5.287
		l125.255,279.11c0.666,1.483,2.124,2.363,3.651,2.363c0.548,0,1.104-0.113,1.636-0.352
		C350.765,419.077,351.665,416.71,350.761,414.694z" style="fill: #00dbf782;"/>
	<path d="M200.114,133.572c-2.016-0.902-4.382-0.004-5.287,2.012L69.572,414.694c-0.904,2.016-0.004,4.383,2.012,5.287
		c0.532,0.238,1.088,0.352,1.636,0.352c1.527,0,2.985-0.88,3.651-2.363l125.255-279.11
		C203.03,136.844,202.13,134.477,200.114,133.572z" style="fill: #00dbf782;"/>
</g>
<g>
</g>
<g>
</g>
<g>
</g>
<g>
</g>
<g>
</g>
<g>
</g>
<g>
</g>
<g>
</g>
<g>
</g>
<g>
</g>
<g>
</g>
<g>
</g>
<g>
</g>
<g>
</g>
<g>
</g>
</svg>
