<?xml version="1.0" encoding="UTF-8" standalone="no"?>
<!-- Created with Inkscape (http://www.inkscape.org/) -->
<svg xmlns:inkscape="http://www.inkscape.org/namespaces/inkscape" xmlns:rdf="http://www.w3.org/1999/02/22-rdf-syntax-ns#" xmlns:ns1="http://sozi.baierouge.fr" xmlns:dc="http://purl.org/dc/elements/1.1/" xmlns="http://www.w3.org/2000/svg" xmlns:cc="http://web.resource.org/cc/" xmlns:xlink="http://www.w3.org/1999/xlink" xmlns:sodipodi="http://sodipodi.sourceforge.net/DTD/sodipodi-0.dtd" id="svg22791" version="1.0" viewBox="0 0 608.64 835.65">
  <g id="layer1" transform="translate(14.786 -38.509)">
    <path id="path23769" style="fill:#00dbf7" d="m164.09 869.31c-1.5-2.56-4.73-16.1-7.19-30.09-2.46-14-5.27-25.45-6.25-25.45-0.99 0-3.25 3.24-5.04 7.19-4.86 10.74-24.41 28.93-31.09 28.93-7.52 0-7.35-1.41 3.47-27.85 5.06-12.38 9.2-23.56 9.2-24.85s-5.03 0.21-11.18 3.33c-6.14 3.12-15.9 6.38-21.687 7.26-5.784 0.88-12.593 2.12-15.13 2.76-2.738 0.69-5.293-0.46-6.284-2.83-1.185-2.82 3.949-9.16 17.694-21.83l19.367-17.85-11.769-0.02c-13.087-0.01-30.507-3.81-32.754-7.14-0.803-1.19 6.257-7.21 15.688-13.37 17.059-11.15 19.425-15.54 8.432-15.64-8.419-0.08-28.75-9.09-26.852-11.9 1.606-2.38 75.445-36.2 79.035-36.2 6.28 0-8.25 8.19-38.45 21.68-34.277 15.3-34.612 15.53-27.099 18.41 4.183 1.61 13.817 3.66 21.408 4.57 7.591 0.9 13.791 2.33 13.781 3.17s-8.25 6.94-18.314 13.56c-10.061 6.63-18.333 12.76-18.382 13.64-0.166 2.95 20.944 4.87 34.646 3.15l13.6-1.72-22.73 22.47c-12.511 12.36-22.332 22.84-21.828 23.31 2.272 2.08 31.918-6.95 41.108-12.52 5.62-3.41 11.52-6.19 13.11-6.19 4.1 0 0.95 11.73-9.64 35.93-4.88 11.16-8.28 20.84-7.54 21.51 2.64 2.42 19.6-15.13 26.78-27.72 11.15-19.54 11.46-19.22 19.05 19.64 3.11 15.89 6.65 29.81 7.88 30.93 1.22 1.13 4.12-4.29 6.43-12.03 16.8-56.28 17.28-56.52 36.88-18.63 6.43 12.43 12.21 22.6 12.85 22.6 0.63 0 2.52-10.56 4.19-23.48 5.24-40.63 5.48-41.53 10.9-41.53 3.05 0 9.23 5.59 16.2 14.65 6.2 8.06 11.56 13.21 11.92 11.44s-0.95-18.93-2.9-38.13c-1.97-19.33-2.55-35.93-1.31-37.2 1.33-1.35 2.24-0.41 2.24 2.29 0 3.64 0.67 3.97 3.27 1.59s2.55-3.39-0.22-4.96c-5.53-3.13-32.2-8.05-34.12-6.3-0.95 0.88-2.34 11.45-3.08 23.5-0.85 13.86-2.49 22.25-4.48 22.85-1.72 0.52-6.69-4.81-11.03-11.84-4.34-7.04-8.96-14.4-10.26-16.36-1.73-2.6-3.73 0.63-7.44 12.04-4 12.28-6.27 15.75-10.7 16.34-6.26 0.83-6.8-0.25-11.52-23.01-1.72-8.28-3.86-15.02-4.75-14.99-0.9 0.03-3.75 4.27-6.33 9.41-4.76 9.45-10.63 13.48-15.57 10.68-2.55-1.44-1.54-14.8 2-26.31 1.36-4.4 0.55-4.85-7.19-4.02-6.74 0.72-10.15-0.45-14.98-5.17l-6.26-6.1 8.87-6.73c4.87-3.7 13.01-10.19 18.09-14.41l9.22-7.67-10.09-9.5c-6.39-6.01-11.78-9.1-14.68-8.4-3.62 0.86-4.59-0.45-4.59-6.27 0-5.38 0.84-6.72 3.11-5 4.83 3.68 13.52-6.06 9.43-10.57-1.7-1.87-5.41-2.85-8.25-2.17-7.54 1.81-6.35-0.92 4.04-9.28 10.34-8.32 11.75-13.96 3.94-15.83-2.89-0.69-5.26-2.4-5.26-3.8s-1.95-4.52-4.35-6.94c-2.6-2.64-3.13-4.4-1.31-4.4 1.67 0 3.05 1.35 3.07 3.01 0.03 2.02 0.84 1.85 2.5-0.55 1.69-2.45 1.06-5.07-2.01-8.39-4.29-4.64-4.27-4.69 0.57-1.26 4.75 3.37 4.93 3.19 3.18-3.25-1.13-4.16-0.87-6.27 0.67-5.39 1.99 1.12 19.22-43.01 18.73-47.98-0.06-0.69 1.68-4.44 3.88-8.33s7.98-17.15 12.86-29.47c4.87-12.31 12.43-29.59 16.8-38.4l7.94-16.01-24.03 6.03c-13.22 3.31-26.11 6.58-28.64 7.26s-4.6 3.34-4.6 5.91-0.89 4.19-1.97 3.59-2.18 4.16-2.44 10.59-1.8 13.63-3.43 16c-2.36 3.43-2.75 1.74-1.89-8.3l1.07-12.62-6.55 6c-5.65 5.18-12.36 7.32-19.62 6.27-1.09-0.15-1.68 1.07-1.32 2.73 0.37 1.68-1.37 2.69-3.94 2.3-3.135-0.48-4.603 0.86-4.603 4.21 0 3.58-1.708 4.92-6.264 4.92-5.913 0-6.36 1.05-7.978 18.66-2.915 31.75-4.701 43.94-6.437 43.94-0.918 0-3.754-6.5-6.303-14.45-2.549-7.94-5.649-14.44-6.888-14.44-1.24 0-3.636 6.43-5.324 14.29-3.632 16.9-10.592 26.61-15.332 21.38-1.669-1.84-3.394-10.16-3.832-18.49l-0.798-15.13-9.202 20.04c-5.061 11.02-10.327 19.77-11.703 19.43-1.416-0.35-2.216-10.28-1.844-22.88l0.659-22.25-5.655 8.43c-11.886 17.71-26.152 27.36-26.152 17.68 0-2.19 4.141-10.76 9.2022-19.05 5.0611-8.29 9.202-15.47 9.202-15.97s-2.5426-1.08-5.6502-1.29c-8.315-0.57-11.923-4.69-8.537-9.73 2.3733-3.54 26.053-19.54 42.191-28.52 4.712-2.62 4.706-2.86-0.196-7.87-4.999-5.11-4.991-5.25 0.657-12.25 6.706-8.31 7.011-10.51 1.985-14.33-3.145-2.39-2.068-5.55 6.882-20.16 18.692-30.52 28.593-40.53 60.34-60.99 16.41-10.58 31.41-20.1 33.32-21.15 4.84-2.64 15.55 7.08 17.7 16.07 0.95 3.98 2.49 17.11 3.42 29.19l1.69 21.96 7.07-6.36c3.89-3.5 7.59-5.9 8.22-5.32 0.62 0.57 5.22-1.16 10.21-3.86 4.99-2.69 19.49-7.34 32.22-10.33l23.14-5.43 17.43-26.48c21.65-32.91 45.29-64.34 47.13-62.66 0.76 0.7-2.55 6.41-7.35 12.7-11.21 14.68-6.01 9.81 19.9-18.65 26.93-29.58 59.04-60.43 61.46-59.06 1.05 0.6 11.86-7.28 24.03-17.49s27.44-22.52 33.94-27.36c15.99-11.9 53.78-35.01 60.41-36.94 2.95-0.86 4.69-2.57 3.86-3.79-0.83-1.23 1.98-2.24 6.23-2.24 9.42 0 12.26-3.64 26.35-33.73 10.1-21.587 10.32-22.63 6.42-30.118-3.65-7.018-3.63-8.878 0.24-19.506 5.21-14.299 20.01-29.81 28.44-29.797 9.85 0.014 22.34 8.515 25.53 17.384 2.29 6.332 2.1 10.684-0.85 19.642-7.34 22.348-19.11 32.475-33.8 29.095-5.42-1.24-6.95 0.7-16.24 20.57l-10.26 21.94 4.24 11.29c8.96 23.88 11.15 46.15 10.93 111.21-0.23 65.71-7.41 143.5-14.18 153.35-2.38 3.48-2.72 1.94-1.7-7.69 0.7-6.62 0.64-9.87-0.13-7.22-8.12 27.74-21.01 58.06-40.86 96.07-23.37 44.74-23.68 45.57-18.49 49.35 8.85 6.46 18.22 24.92 21.7 42.76l3.3 16.93 14.06-6.25c7.74-3.43 14.09-7.84 14.12-9.79 0.03-2.27 1.62-1.49 4.44 2.19 3.33 4.36 4.44 11.44 4.6 29.43 0.11 13.03-0.54 23.69-1.46 23.69-3.03 0-4.28 12.03-1.25 12.11 1.6 0.05 1 1.42-1.34 3.05s-5.11 6.53-6.15 10.88c-4.48 18.65-24.94 57.87-29.48 56.49-3.6-1.1-7.93 3.92-10.05 11.66-1.41 5.14-0.62 6.63 4.39 8.21 5.24 1.66 4.54 2.07-4.85 2.86l-10.97 0.93 0.45 14.92c0.42 14.04 0.1 14.91-5.47 14.73-3.25-0.1-5.96-0.1-6.01 0-0.06 0.11-0.76 4.53-1.56 9.82-1.89 12.46-5.44 15.87-10.28 9.87-4.15-5.16-3.65-5.95-10.3 16.02-5.54 18.27-11.11 18.22-14.42-0.13l-1.47-8.11-8.49 11.04c-10.69 13.9-16.72 14.73-14.77 2.01 1.29-8.39 7.34-29.22 10.49-36.09 0.99-2.18-0.84-2.59-6.73-1.51-4.46 0.82-8.1 0.54-8.1-0.62 0.01-1.16 4.05-8.25 8.99-15.75s8.29-14.27 7.45-15.04c-0.85-0.78-4.54-1.41-8.2-1.41-4.68 0-5.84-0.76-3.89-2.54 2.92-2.68 15.76-0.78 18.09 2.67 0.74 1.1-2.23 7.33-6.6 13.84-4.38 6.51-7.95 12.38-7.95 13.05 0 0.66 2.95 0.68 6.57 0.05 7.86-1.38 7.97-0.29 1.73 16.49-6.38 17.14-8.91 29.29-5.73 27.49 1.37-0.77 6.29-6.24 10.92-12.15 4.64-5.91 9.35-10.75 10.48-10.75 1.12 0 2.4 5.69 2.84 12.64l0.79 12.64 3.14-8.43c1.73-4.63 4.43-13.03 6.02-18.66 3.11-11.06 6.59-13.08 9.26-5.38 2.6 7.52 6.56 3.14 6.56-7.26 0-10.37 3.5-13.96 9.32-9.54 3.25 2.48 3.8 1.34 3.64-7.62-0.32-17.97-8.44-25.69-11.65-11.07-3.43 15.63-4.07 16.69-8.17 13.57-4.49-3.41-4.15-3.69-11.28 9.25-8.66 15.73-14.47 11.67-6.9-4.82 1.39-3.01 0.72-4.21-2.35-4.21-3.97 0-3.97-0.58-0.04-7.54 4.32-7.65 3.51-9.5-5.44-12.54-1.45-0.49-0.63-2.95 1.83-5.5 4.25-4.39 4.98-11.13 1.54-14.27-2.07-1.9-11.31 2.58-23.74 11.51-12.76 9.15-12.91 4.51-0.17-5.11 5.33-4.03 9.96-8.99 10.29-11.02 0.32-2.04-0.41-3.14-1.64-2.45-2.72 1.54-17.09-15.22-14.83-17.29 0.89-0.82 3.25-0.25 5.23 1.26 2.9 2.2 4.41 0.88 7.64-6.64 3.81-8.88 3.73-9.64-1.43-14.37-7.4-6.77-3.36-9.71 4.29-3.13 8.62 7.41 11.39 6.6 17.05-5.01 2.74-5.62 10.3-17.3 16.8-25.95l11.81-15.72-4.35-11.97c-2.4-6.58-7.26-17.11-10.81-23.41l-6.46-11.44-11.44 16.98c-6.29 9.33-12.02 16.43-12.73 15.78-0.72-0.66 4.09-9.07 10.69-18.7 6.59-9.63 11.46-18 10.81-18.59-1.46-1.34-0.14-2.86-18.53 21.4-8.53 11.25-28.82 35.94-45.09 54.85-16.26 18.91-29.57 35.31-29.57 36.44 0 1.12 2.66 2.71 5.91 3.53 4.72 1.18 5.16 1.93 2.18 3.68-3.79 2.24-16.69 1.85-38.62-1.16l-12.14-1.67 1.88 14.76c1.02 8.12 1.16 14.76 0.29 14.76-0.86 0-4.01-2.23-6.99-4.96-7.65-7.01-11.24-4.85-14.55 8.77-1.61 6.61-4.22 11.58-5.92 11.24-1.72-0.34-3.02 2.27-3.01 6.02 0.03 9.32 4.87 60.18 6.76 71.03 1.73 9.98-1.77 12.07-6.04 3.61-1.5-2.98-8.34-12.37-15.19-20.86-8.99-11.14-13-14.49-14.4-12.04-1.06 1.87-3.35 15.87-5.09 31.09-1.73 15.23-4.22 28.68-5.53 29.88-4.11 3.78-10.48-3.47-22.82-25.99-8.29-15.1-12.49-20.6-13.92-18.18-1.12 1.9-5.24 13.75-9.15 26.33-9.03 29.02-13.62 34.66-19.71 24.24zm30.92-106.21c2.46-8.33 5.85-15.56 7.53-16.07s7.89 6.44 13.79 15.45l10.74 16.38-0.02-22.87-0.01-22.87-19.04-9.17c-10.46-5.03-24.34-12.7-30.83-17.02l-11.8-7.87-16.25 12.21c-8.93 6.72-16.34 13.55-16.46 15.18-0.31 4.26 12.84 6.67 18.55 3.41 2.65-1.52 5.43-2.76 6.18-2.76 2.29 0 1.46 12.77-1.46 22.41-4.63 15.26-0.88 15.79 6.7 0.94 3.92-7.68 8.5-13.57 10.16-13.08 2.24 0.65 13.01 31.78 14.71 42.49 0.52 3.3 3.61-3.59 7.51-16.76zm246.08 8.34c0.88-2.1 3.07-3.36 4.88-2.81 1.86 0.57 4.44-2.22 5.94-6.42 2.51-7.04 2.17-7.63-6.58-11.34-7.69-3.26-9.84-3.38-12.95-0.71-3.19 2.74-2.82 3.87 2.61 7.9 6.06 4.49 6.13 4.89 1.75 9.33-2.52 2.55-3.79 5.36-2.83 6.25 2.89 2.64 5.48 1.85 7.18-2.2zm36.8-24.08c3.96-9.43-1.78-18.28-9.15-14.11-2.76 1.56-3.25 13.93-0.64 16.32 3.11 2.84 8.15 1.71 9.79-2.21zm-14.44-13.64c0.39-6.21-3.7-5.13-7.2 1.91-2.35 4.73-2.3 6.86 0.24 9.39 2.72 2.7 3.57 2.38 4.99-1.92 0.94-2.84 1.83-7.07 1.97-9.38zm-10.93 0.24c2.8-6.06 2.09-9.27-2.07-9.27-3.12 0-8.41 13.96-6.41 16.92 2.17 3.21 4.38 1.22 8.48-7.65zm-179.15-0.96c2.09-7.63 0.96-8.67-9.94-9.14-7.09-0.3-8.88 0.6-9.54 4.8-0.59 3.81 1.14 5.82 6.58 7.63 10.65 3.56 11.05 3.46 12.9-3.29zm170.22-11.32c-2.23-3.31-5.52-1.87-9.98 4.37-3.59 5.02-3.8 6.87-1.13 9.82 2.83 3.12 3.92 2.52 7.81-4.38 2.49-4.4 3.97-8.82 3.3-9.81zm-193.02-2.13c0.1-0.84-2.1-2.07-4.9-2.74-7-1.68-9.75 5.61-3.66 9.69 3.98 2.66 4.96 2.49 6.53-1.15 1.02-2.35 1.93-4.96 2.03-5.8zm253.19-9.47c12.47-22.73 14.79-31.14 8.59-31.14-7.35 0-35.24-14.68-42.12-22.17l-6.36-6.92-12.18 15.15c-14.47 17.99-19.82 27.03-20.79 35.06-0.61 5.12 1.42 6.82 14.83 12.39 8.54 3.56 14.64 7.28 13.55 8.27-1.09 1-0.16 1.18 2.06 0.4s9.29 0.7 15.7 3.3 12.84 4.46 14.28 4.14c1.45-0.32 7.05-8.63 12.44-18.48zm-72.14 12.1c5.04-7.38 0.89-10.59-4.92-3.81-5.91 6.87-6.28 8.73-1.74 8.73 1.82 0 4.82-2.21 6.66-4.92zm-142.46-1.3c-0.88-2.09-1.6-5.89-1.6-8.43s-1.04-4.62-2.33-4.62c-3.44 0-5.1 14.15-1.8 15.41 5.55 2.11 7.3 1.39 5.73-2.36zm137.75-11.53c0-0.75-1.78-0.74-3.95 0.02-2.49 0.88-3.94-0.03-3.94-2.48 0-6.39-4.02-4.39-8.52 4.26-5.96 11.45-1.34 14.75 8.66 6.2 4.26-3.65 7.75-7.25 7.75-8zm-192.46 7.68c0.89-4.23-8.42-10.36-12.35-8.14-1.25 0.71-2.78 3.74-3.4 6.73-0.99 4.71-0.04 5.46 6.88 5.46 5.42 0 8.29-1.31 8.87-4.05zm41.56-7.27c0.22-7.02-0.55-8.32-4.38-7.4-5.95 1.43-9.31 12.7-4.59 15.44 5.83 3.39 8.68 0.83 8.97-8.04zm-60.64 0.18c2.86-8.27-9.73-13.24-13.11-5.18-1.09 2.6-0.03 5.3 2.85 7.22 6.34 4.25 8.21 3.88 10.26-2.04zm47.08-6.32c1.2-3.59 0.71-5.42-1.45-5.42-1.79 0-5.28-1.68-7.76-3.73-4.14-3.43-4.74-3.11-7.44 3.97-4.04 10.62-3.89 11.1 4.3 13.66 7.67 2.39 9.03 1.46 12.35-8.48zm-66.91 8.08c0-0.52-1.83-1.59-4.08-2.38-2.34-0.82-3.39-0.41-2.47 0.95 1.54 2.29 6.55 3.38 6.55 1.43zm5.26-13.7c0-0.93-1.75-2.31-3.9-3.06-5.48-1.92-11.16 7.9-6.23 10.75 3.32 1.92 10.13-3.25 10.13-7.69zm40.65-1.43c1.42-6.19 0.74-8.16-3.5-10.24-8.11-3.97-9.76-3.22-12.81 5.89-2.65 7.91-2.38 8.69 4.16 11.86 8.11 3.94 9.75 2.93 12.15-7.51zm-55.02-1.02c0.97-2.81 0.39-6.28-1.33-7.82-2.32-2.09-4.34-1.35-8.26 3.04-4.06 4.56-4.45 6.25-1.79 7.79 5.71 3.32 9.54 2.3 11.38-3.01zm33.79-3.14c0.88-3.19 2.29-7.45 3.13-9.47 1.04-2.47-1.2-4.97-6.8-7.62-4.59-2.18-8.68-3.6-9.08-3.18-0.41 0.43-2.7 4.3-5.08 8.61l-4.35 7.82 8.61 4.81c10.92 6.09 11.65 6.04 13.57-0.97zm-45.71-8.94c0-0.98-1.95-3.56-4.33-5.74-4.02-3.68-4.72-3.6-9.86 1.18l-5.53 5.14 6.46 4.86c6.14 4.61 6.63 4.64 9.86 0.59 1.87-2.34 3.4-5.05 3.4-6.03zm134.09 8.86c0-0.59-1.19-1.73-2.63-2.55-1.45-0.82-2.63-0.34-2.63 1.06s1.18 2.55 2.63 2.55c1.44 0 2.63-0.48 2.63-1.06zm-23.57-6.01c-3.44-5.87-3.8-12.66-0.42-7.78 1.78 2.57 2.55 2.43 3.87-0.72 0.97-2.31 0.57-3.33-0.95-2.47-1.43 0.81-2.56-1.02-2.51-4.09l0.09-5.56 4.98 5.47 4.98 5.47 0.92-5.47c0.85-5.01 1.35-4.76 5.98 2.96 3.84 6.41 5.28 7.41 6.04 4.18 0.54-2.33 2.08-3.62 3.42-2.87 1.33 0.76 2.43-0.31 2.43-2.37 0-2.07 1.26-3.76 2.8-3.76s2.16 1.9 1.38 4.22c-0.79 2.31-0.2 5.83 1.31 7.82 2.13 2.82 2.37 2.42 1.07-1.81-0.98-3.18-0.51-5.41 1.15-5.41 1.54 0 2.8-2.71 2.8-6.02s1.28-6.02 2.84-6.02c1.76 0 2.26 2.96 1.3 7.82-1.42 7.25-1.33 7.38 1.29 1.81 1.55-3.31 2.35-9 1.78-12.64s-0.06-6.62 1.13-6.62c1.2 0 2.18-3.47 2.18-7.71 0-5.89 0.72-7.04 3.08-4.88s2.36 4.28 0 9.02c-4.26 8.57-3.7 10.88 0.86 3.57 2.07-3.31 3.8-8.46 3.85-11.44s1.28-5.42 2.72-5.42c1.45 0 2.65-3.52 2.67-7.82 0.03-5.94 0.66-6.95 2.59-4.21 2.18 3.08 2.56 3 2.59-0.61 0.02-2.31 1.14-4.21 2.48-4.21s2.98 1.9 3.64 4.21c0.72 2.54 1.32 1.52 1.5-2.55 0.18-3.84 1.45-6.12 2.94-5.27 1.44 0.82 2.63 0.48 2.63-0.74 0-1.23-10.35-5.81-23.01-10.18-31.13-10.75-78.66-32.91-105.82-49.34-12.29-7.44-23.39-13.72-24.66-13.95-3.59-0.67-14.78-11.2-14.78-13.92 0-1.34-1.18-1.77-2.63-0.95-1.44 0.81-2.62-0.07-2.62-1.98 0-1.9-1.64-4.7-3.64-6.22-2.98-2.26-5.34 1.09-12.92 18.36l-9.27 21.13 5.03 7.51c5.9 8.82 7 15.73 1.73 10.91-1.8-1.65-3.43-4.04-3.61-5.29-0.18-1.26-0.48-3.37-0.66-4.7-0.18-1.32-1.29-2.41-2.47-2.41-1.86 0-2.32 14.65-0.51 16.26 0.38 0.33 0.83 1.41 1.01 2.4 0.19 1 3.08 5.33 6.43 9.63 3.35 4.31 4.89 7.83 3.43 7.83-1.45 0-3.43-1.16-4.38-2.57-0.96-1.42-3.36-2.01-5.33-1.31-4.59 1.61-7.49-2.44-3.4-4.75 2.05-1.16 2.37-0.69 0.95 1.41-1.39 2.06-1.1 2.57 0.85 1.46 2.21-1.25 2.17-2.88-0.16-6.29-2.17-3.19-3.72-3.75-5.03-1.81-1.04 1.54-1.3 3.66-0.59 4.72 0.71 1.05-0.25 1.95-2.15 1.98-1.89 0.04 0.68 3.19 5.72 7.02 5.04 3.82 9.91 6.53 10.82 6.01 0.92-0.52 3.9 1.38 6.62 4.23 4.86 5.07 4.86 5.13-0.16 3.45-4.84-1.63-4.87-1.48-0.66 2.79 7.15 7.23 5.16 8.51-4.09 2.63l-8.54-5.43 5.12 5.38c5.03 5.29 7.73 12.38 4.71 12.38-0.84 0-3.89-1.9-6.78-4.21-4.16-3.34-3.93-2.51 1.1 3.92 6.41 8.19 37.88 31.59 42.49 31.59 1.37 0 5.55 2.21 9.31 4.91 6.02 4.34 7.09 4.48 9.12 1.16 2.84-4.66 6.15-2.91 12.89 6.83l5.23 7.56-1.73-10.23c-0.96-5.63-1.02-10.23-0.15-10.23 2.12 0 12.03 15.01 11.92 18.06-0.05 1.32-1.84-0.3-3.99-3.61l-3.91-6.02 0.72 6.02c0.41 3.45 2.39 6.01 4.65 6.01 3.04 0 3.75-2.41 3.08-10.49-0.61-7.44 0.01-9.99 2.15-8.78 1.66 0.94 2.36 3.28 1.55 5.21-0.81 1.92 0.35 7.48 2.57 12.35 3.18 6.97 4.56 8.1 6.47 5.29 1.33-1.97 1.79-7.91 1.01-13.21-1.33-9.04-1.16-9.34 2.71-4.95 2.27 2.57 4.11 5.82 4.09 7.22-0.03 1.4-1.32 0.92-2.88-1.06-2.36-3-2.57-2.86-1.26 0.82 0.86 2.44 2.28 7.05 3.16 10.24 0.87 3.18 2.68 5.79 4.02 5.79 1.4 0 1.28-1.98-0.28-4.66zm-15.54-8.88c-1.74-3.49-2.55-6.89-1.82-7.57 0.74-0.67 2.59 1.78 4.12 5.46 3.61 8.69 1.8 10.34-2.3 2.11zm-100.57-77.35c-3.27-3.82-3.18-3.9 0.99-0.91 2.53 1.82 4.6 3.72 4.6 4.22 0 1.98-2.16 0.7-5.59-3.31zm2.96-13.84c-1.8-1.99-2.3-3.61-1.11-3.61s0.74-1.3-0.99-2.89c-1.74-1.59-3.12-4.03-3.07-5.42 0.08-2.62 6.28 3.93 10.72 11.32 3.11 5.19-0.98 5.63-5.55 0.6zm121.26 95.88c-2.29-3.61-2.8-3.71-2.87-0.58-0.08 4.06 2.68 7.71 4.55 6 0.61-0.56-0.14-3-1.68-5.42zm-94.27-5.73c3.81-8.44 3.76-8.63-3.67-12.53-7.47-3.93-7.57-3.9-11.81 3.61-4.21 7.45-4.16 7.67 3.18 13.03 4.1 2.99 7.67 5.22 7.94 4.95 0.26-0.28 2.23-4.35 4.36-9.06zm103.99 3.74c-1.65-3.32-3.36-5.71-3.79-5.32-1.6 1.47 2.34 11.35 4.52 11.35 1.25 0 0.92-2.72-0.73-6.03zm-145.74-4.72c4.01-5.61 3.94-6.09-1.23-8.62-4.39-2.16-6.52-1.83-10.73 1.66-5.23 4.34-5.23 4.36 0.51 8.62 7.15 5.3 6.39 5.41 11.45-1.66zm83-3.91c-1.61-2.76-3.58-4.43-4.36-3.71-2.17 1.98 1.3 8.74 4.49 8.74 1.94 0 1.9-1.54-0.13-5.03zm279.57 0.21c0.91-3.18 0.08-4.82-2.43-4.82-2.09 0-8.65-2.26-14.57-5.03-8.67-4.05-11.19-4.4-12.93-1.82-1.76 2.61-2.79 2.63-5.54 0.11-2.69-2.46-2.71-3.46-0.08-4.95 2.43-1.37 1.61-3.31-3.11-7.38-6.28-5.4-12.1-5.13-12.02 0.56 0.03 1.92 0.79 1.78 2.3-0.4 1.74-2.52 2.72-2.59 4.24-0.33 1.09 1.61 0.7 3.66-0.87 4.55-3.66 2.07 11.74 13.44 26.55 19.59 14.11 5.87 16.76 5.86 18.46-0.08zm-19.82-4.07c-2.53-0.6-4.61-2.1-4.61-3.33 0-3.15 3.12-2.65 9.05 1.46 5.11 3.54 4.17 3.93-4.44 1.87zm-155.58-4.57c-2.08-5.18-3.86-7.59-3.96-5.36-0.23 5.1 4.79 17.47 6.47 15.93 0.69-0.63-0.44-5.39-2.51-10.57zm-164.8 2.23c2.63-5.29 2.49-7.05-0.82-10.07-3.58-3.28-4.56-3.2-9.33 0.76-6.55 5.43-6.72 8.22-0.74 12.37 6.4 4.45 7.27 4.21 10.89-3.06zm172.91-1.42c-0.73-1.65-1.32-0.3-1.32 3.01s0.59 4.67 1.32 3.01c0.73-1.65 0.73-4.36 0-6.02zm5.79-7.22c-3.49-14.66-5.17-16.79-3.51-4.44 1.34 9.91 2.98 14.67 5.06 14.67 0.48 0-0.21-4.6-1.55-10.23zm160.79 3.04c-2.06-1.17-4.91-1.46-6.33-0.66-1.41 0.8-0.29 2.22 2.51 3.15 6.28 2.09 8.9 0.39 3.82-2.49zm-354.34-5.96c4.5-5.66 4.43-5.9-2.91-10.68l-7.5-4.9-6.29 6.15-6.29 6.14 6.2 4.61c8.05 5.98 11.19 5.73 16.79-1.32zm185.19 0.66c-0.84-1.92-1.46-1.35-1.59 1.46-0.11 2.54 0.51 3.96 1.38 3.16 0.88-0.8 0.97-2.88 0.21-4.62zm158.14 1.31c-0.48-1.07-2.34-2.15-4.14-2.39s-8.31-4-14.46-8.35c-10.61-7.49-10.85-7.55-4.62-1.1 10.18 10.55 26.34 18.79 23.22 11.84zm-144.99-6.12c-0.84-1.92-1.47-1.35-1.59 1.45-0.12 2.54 0.5 3.96 1.38 3.16 0.87-0.8 0.96-2.87 0.21-4.61zm7.88 0c-0.84-1.92-1.46-1.35-1.59 1.45-0.11 2.54 0.51 3.96 1.39 3.16 0.87-0.8 0.96-2.87 0.2-4.61zm-22.87-3.9c-0.03-3.51-0.39-3.58-2.59-0.46-3.32 4.71-3.32 7.9 0 6.01 1.45-0.81 2.62-3.32 2.59-5.55zm150-5.38c-5-3.92-10.21-7.12-11.56-7.12-2.41 0 16.76 14.05 19.35 14.18 0.72 0.04-2.78-3.14-7.79-7.06zm26.2 6.5c0-0.46-6.22-5.42-13.81-11.02l-13.8-10.19 13.07 11.01c12.61 10.63 14.54 11.98 14.54 10.2zm-156.01-9.41c-0.73-1.65-1.33-0.3-1.33 3.01s0.6 4.66 1.33 3.01c0.73-1.66 0.73-4.36 0-6.02zm-1.84-11.11c-0.19-3.13-7.6 10.65-7.59 14.12 0 1.99 1.73-0.03 3.85-4.49 2.11-4.46 3.8-8.79 3.74-9.63zm-13.88 8.85c-0.84-1.92-1.46-1.35-1.59 1.46-0.11 2.54 0.51 3.96 1.38 3.16 0.88-0.8 0.97-2.88 0.21-4.62zm174.35 4.49c0-0.44-3.25-3.42-7.23-6.63l-7.23-5.83 6.38 6.62c5.96 6.19 8.08 7.72 8.08 5.84zm-48.61-36.03c2.57-3.98 3.32-6.47 1.67-5.54-1.66 0.94-3.01 0.62-3.01-0.7 0-1.33 1.18-3.08 2.63-3.9s2.63-2.64 2.63-4.05c0-1.51-1.79-1.2-4.37 0.75-4 3.01-4.09 2.77-1.11-2.72 2.22-4.1 0.3-2.95-6.05 3.61-5.12 5.3-9.31 10.72-9.31 12.04 0 1.33 2.9-0.84 6.46-4.81 9.79-10.94 7.76-4.85-2.47 7.42-4.93 5.91-9.44 9.42-10.03 7.8-0.67-1.82-1.7-2.03-2.7-0.54-0.89 1.32-0.5 3.97 0.88 5.9 2.06 2.87 3.44 2.35 7.79-2.94 11.02-13.43 15.81-17.14 7.23-5.61-4.92 6.63-9.85 13.67-10.97 15.65-3.37 6.01 15.71-14.56 20.73-22.36zm-80.21 17.41c0-1.25-1.19-2.27-2.63-2.27-1.45 0-2.63 1.69-2.63 3.75 0 2.07 1.18 3.09 2.63 2.27 1.44-0.82 2.63-2.51 2.63-3.75zm-7.55-10.32c-1.61-1.77-2.05-4.17-0.97-5.33 1.07-1.16-0.24-0.57-2.91 1.31-4.72 3.32-4.72 3.47 0 5.17 6.94 2.5 7.13 2.44 3.88-1.15zm73.01-16.14l13.01-16.98-5.41-11.92c-2.97-6.55-6.14-11.92-7.03-11.91-0.89 0-6.78 8.76-13.09 19.46l-11.47 19.46 4.64 9.43c2.55 5.19 5.02 9.43 5.49 9.43 0.46 0 6.7-7.64 13.86-16.97zm-7.4-1.12c3.16-5.32 8.81-11.78 12.54-14.36l6.79-4.69-5.7 7.13c-3.13 3.93-8.78 10.39-12.54 14.36l-6.85 7.22 5.76-9.66zm5.04 12.99c0-1.33-1.19-1.74-2.63-0.92-1.45 0.82-2.63 2.57-2.63 3.89 0 1.33 1.18 1.74 2.63 0.92 1.44-0.81 2.63-2.57 2.63-3.89zm-294.47 1.86c0-0.46-2.66-2.9-5.91-5.42l-5.92-4.58 5.01 5.41c4.71 5.09 6.82 6.52 6.82 4.59zm211.34-2.91c0.9-2.14 0.45-3.11-1.04-2.26-1.43 0.81-2.59 2.49-2.59 3.73 0 3.47 1.88 2.7 3.63-1.47zm-3.07-20.06c-1.16-2.75-1.98-2.65-4.53 0.55-1.72 2.15-4.15 3.12-5.41 2.15-1.26-0.98-0.74 0.08 1.14 2.34 3.62 4.33 1.73 10.2-2.51 7.8-1.37-0.78-1.69-2.59-0.72-4.02 1.04-1.55 0.54-1.93-1.22-0.93-2.21 1.25-2.18 2.86 0.11 6.23 2.91 4.26 3.45 4.07 8.82-3.11 3.15-4.21 5.09-9.16 4.32-11.01zm-20.3 7.04c0.64-3.06 2.98-7.4 5.19-9.64 4.63-4.68 5.15-7.31 1.47-7.31-3.33 0-10.94 13.52-11.84 21.01-0.86 7.2 3.53 3.76 5.18-4.06zm46.36 5.32c3.27-3.82 3.18-3.9-0.99-0.91-2.53 1.82-4.6 3.72-4.6 4.22 0 1.98 2.16 0.7 5.59-3.31zm-51.47-10.47c3.74-6.75 6.42-12.59 5.96-12.96-0.46-0.38-10.3-4.13-21.87-8.33-11.56-4.21-29.79-11.96-40.5-17.24-11.04-5.44-20.47-8.68-21.76-7.5-1.26 1.16-2.99 7.47-3.84 14.05l-1.54 11.94 28.56 12.36c23.05 9.97 43.4 18.42 47.58 19.76 0.34 0.11 3.67-5.33 7.41-12.08zm-2.76-6.98c2.62-2.65 5.35-4.82 6.07-4.82 0.73 0-0.82 2.17-3.44 4.82s-5.35 4.81-6.07 4.81c-0.73 0 0.82-2.16 3.44-4.81zm99.81-5.42c3.94-6.29 6.57-11.44 5.83-11.44-1.61 0-17.56 23.44-17.56 25.8 0 2.78 4.21-2.38 11.73-14.36zm-23.01 2.99c2.96-5.36 3.35-5.48 3.66-1.18 0.19 2.64 0.13 5.9-0.15 7.22-0.27 1.32 0.92 1.13 2.65-0.42 2.37-2.13 2.42-4.71 0.21-10.52-1.61-4.23-2.37-10.54-1.7-14.02 0.68-3.49-0.43-2.01-2.45 3.29l-3.69 9.63-0.2-11.58c-0.12-7.14 0.81-11.01 2.43-10.09s2.63-3.23 2.63-10.83c0-7.03 1.05-11.73 2.45-10.94 1.35 0.77 1.82 4.99 1.04 9.39-1.97 11.12 3.97 36.6 7.73 33.16 2.05-1.87 2-6-0.18-14.65-1.81-7.16-2.13-14.25-0.81-17.51 1.85-4.56 2.55-3.32 4.16 7.39 1.36 9.01 2.77 12.11 4.71 10.33 1.94-1.77 1.31-7.43-2.1-18.88-4.13-13.89-5.15-15.44-6.73-10.33-1.69 5.47-1.88 5.28-2.12-2.1-0.23-6.96 0.3-7.69 3.68-5.12 2.17 1.64 4.06 4.76 4.2 6.91 0.15 2.16 1.12 1.21 2.17-2.1 1.54-4.86 2.29-3.31 3.91 8.1 1.44 10.11 2.81 13.38 4.84 11.52 2.04-1.87 1.83-6.55-0.72-16.53-4.43-17.32-5.62-36.8-2.23-36.8 1.4 0 4.21 3.52 6.26 7.83l3.71 7.82 0.14-10.83c0.09-6.88 0.96-9.66 2.37-7.62 1.43 2.06 2.9-2.27 4.11-12.04 1.78-14.34 2.13-14.96 5.93-10.44 3.9 4.65 3.99 4.58 2.78-1.8-0.68-3.64-0.23-6.62 1.02-6.62 1.24 0 2.28-2.44 2.3-5.42 0.03-4.38 0.53-4.73 2.59-1.81 2.49 3.53 3.61-1.23 3.55-15.04-0.02-2.32 0.96-4.22 2.16-4.22s2.19-1.89 2.22-4.21c0.03-3.54 0.43-3.65 2.48-0.67 2.7 3.9 2.25 4.57 7.26-10.77 2.82-8.62 2.61-33.8-0.35-41.83-1.61-4.35-1.31-5.27 1.25-3.82 2.43 1.37 2.86 0.72 1.56-2.37-1.33-3.19-0.77-3.92 2.22-2.87 3.19 1.12 3.69 0.06 2.45-5.15-1.12-4.67-0.82-5.59 1.01-3.2 1.73 2.26 2.33-5.23 1.82-22.84l-0.75-26.2-10.99-8.93c-14.4-11.7-75.41-39.47-98.35-44.76l-18.05-4.16-35.06 33.13c-36.04 34.05-72.56 76.21-92.99 107.36-6.38 9.73-13.01 18.18-14.72 18.78-4.87 1.71-36.28 63.37-36.28 71.21 0 7.48 14.68 23.34 22.59 24.4 2.32 0.32 11.29 5.66 19.95 11.89 8.65 6.23 16.4 11.32 17.21 11.32 0.82 0 8.26 3.96 16.53 8.81 19.75 11.57 54.83 26.48 67.22 28.58 5.42 0.92 9.86 2.69 9.86 3.95 0 1.25 1.1 1.66 2.45 0.9 1.34-0.77 3.19-0.29 4.1 1.06 0.91 1.34 3.96 2.44 6.79 2.44 2.82 0 7.19 1.1 9.7 2.44 6.04 3.22 32.44 9.47 37.37 8.85 2.13-0.27 5.36-3.19 7.19-6.49zm-69.82-29.16c-6.11-3.81-13.2-6.94-15.76-6.94-7.76 0-30.35-11.47-39.04-19.82-18.34-17.63-22.77-33.63-15.46-55.87 10.77-32.79 45.01-52.74 76.58-44.65 15.89 4.08 34.93 20.07 45.5 38.24 7.28 12.5 8.54 17.31 9.21 34.98 0.74 19.88-0.36 25.44-5.21 26.26-1.28 0.22-2 1.32-1.59 2.45 0.41 1.12-3.43 5.66-8.54 10.07s-9.29 9.24-9.29 10.73-1.18 2.04-2.63 1.23c-1.45-0.82-2.63-0.28-2.63 1.2s-1.18 2.02-2.63 1.2c-1.44-0.81-2.63-0.44-2.63 0.83s-3.32 3.38-7.38 4.67c-6.25 2-9.1 1.29-18.5-4.58zm22.09-6.25c-0.72-1.7 0.04-3.09 1.68-3.09 1.65 0 2.45-0.5 1.78-1.11s-3.82-0.48-7.01 0.28c-7.28 1.74-7.63 7.02-0.48 7.02 3.26 0 4.82-1.2 4.03-3.1zm-1.46-10.16c8.48-5.44 24.09-24.05 22.34-26.64-0.74-1.1 0.04-2.42 1.73-2.94 4.02-1.22 5.13-22.11 1.83-34.38-6.38-23.69-31.7-44.6-53.87-44.49-39.14 0.21-72.08 44.13-57.35 76.47 13.49 29.62 61.15 47.49 85.32 31.98zm-38.13-4.97c0.9-1.33 0.05-2.41-1.87-2.41-5.2 0-22.69-13.93-26.73-21.28-8.41-15.35-5.73-37.54 6.1-50.4 10.35-11.24 38.45-16.34 52.01-9.44 6.94 3.53 17.59 16.13 24.4 28.87 4.45 8.31 4.56 10.17 1.21 20.51-4.54 13.97-19.22 27.72-35.07 32.84-13.13 4.24-22.44 4.85-20.05 1.31zm-10.41-16.69c-0.95-1.42-2.99-2.57-4.52-2.57-1.75 0-1.55 1.38 0.53 3.67 3.6 3.98 6.82 3.09 3.99-1.1zm-6.68-13.15c0-0.52-1.77-1.57-3.94-2.33s-3.94-0.34-3.94 0.94c0 1.29 1.77 2.34 3.94 2.34s3.94-0.43 3.94-0.95zm7.89-8.02c-2.17-0.74-6.78-2.32-10.25-3.49-6.09-2.07-6.13-2.26-1.31-5.6 4.81-3.34 4.81-3.46 0.11-3.54-3.32-0.05-4.38-1.27-3.32-3.81 0.86-2.05 0.54-3.15-0.72-2.44s-2.88 4.12-3.6 7.58c-1.1 5.27 0.03 6.83 6.92 9.58 4.52 1.8 10 3.23 12.17 3.18 3.51-0.09 3.51-0.25 0-1.46zm58.75 46.18c-0.86-2.04-2.12-3.2-2.81-2.57-0.69 0.64-0.47 2.31 0.48 3.72 2.59 3.84 4.11 3.09 2.33-1.15zm46.62 2.31c0.13-2.8 0.75-3.37 1.59-1.45 0.76 1.74 0.67 3.81-0.21 4.61-0.87 0.8-1.49-0.62-1.38-3.16zm10.31-25.74c0-3.45 1.23-6.97 2.74-7.82 1.79-1.02 2.12 0.8 0.94 5.27-2.42 9.23-3.68 10.1-3.68 2.55zm-12.72-78.07c-1.67-2.85-2.36-7.16-1.53-9.58 1.45-4.22 1.39-4.22-1.54-0.02-1.68 2.39-2.4 5.92-1.6 7.82 0.8 1.91 0.31 3.47-1.09 3.47s-2.55-1.12-2.55-2.5c0-1.7-1.58-1.71-4.99-0.04-4.05 1.98-5.8 1.3-9.31-3.6-2.38-3.32-3.59-7.36-2.7-8.98s-0.11-1.01-2.21 1.34c-3.42 3.83-4 3.87-5.44 0.45-0.88-2.11-2.62-3.26-3.86-2.55-1.25 0.7-6.07-4.11-10.73-10.68-4.65-6.58-9.34-11.97-10.42-11.97-1.07 0-4.52-4.18-7.66-9.3-20.4-33.23 10.74-79.78 53.38-79.78 32.75 0 57.52 25.33 60.75 62.13 0.5 5.71 1.52 11.28 2.27 12.39 0.75 1.12-0.35 5.04-2.43 8.72-2.09 3.69-3.09 7.76-2.21 9.05 0.95 1.41 0.19 1.57-1.9 0.38-2.53-1.43-3.02-0.87-1.8 2.04 0.92 2.2 0.57 4-0.79 4-1.35 0-1.71 1.81-0.78 4.01 1.13 2.7 0.67 3.44-1.4 2.27-1.69-0.96-3.08-0.53-3.08 0.95s-1.31 1.95-2.91 1.04c-1.95-1.11-2.33 0.03-1.13 3.47 1.05 3.04 0.63 5.12-1.04 5.12-1.54 0-2.84-1.36-2.9-3.01-0.05-1.66-1.78-0.3-3.85 3.01-2.06 3.31-3.83 4.93-3.93 3.61-0.09-1.32-1.32-0.61-2.72 1.59s-4.62 3.71-7.15 3.36c-2.53-0.36-5.3 1.07-6.16 3.17-1.3 3.19-2.06 2.96-4.59-1.38zm13.89-25.69c13.56-8.14 20.66-21.78 21.82-41.97 1.02-17.56 0.62-19.23-7.67-31.78-10.23-15.48-21.47-21.66-39.47-21.66-16.39-0.01-23.49 2.76-37.57 14.65-17.41 14.69-21.87 34.59-12.15 54.19 5.51 11.11 21.55 24.53 34.8 29.11 11.33 3.92 31.6 2.64 40.24-2.54zm-46.07-9.4c-14.03-8.66-21.44-20.44-20.03-31.84 3.37-27.29 16.82-38.78 43.08-36.78 10.98 0.83 15.82 2.59 21.97 7.99 15.88 13.93 16.21 34.88 0.81 51.64-13.81 15.04-30.67 18.35-45.83 8.99zm-343.15 160.29c6.638-21.89 11.165-23.94 17.597-8l4.35 10.79 1.935-24.76c1.064-13.62 1.262-25.38 0.44-26.13-3.664-3.36-9.231 2.08-10.791 10.54-0.938 5.09-2.699 10.72-3.912 12.52-3.239 4.8-8.04 0.95-8.136-6.52l-0.083-6.48-5.394 6.62c-7.065 8.67-10.214 8.37-10.214-0.97 0-7.03-0.344-7.33-4.601-3.93-2.531 2.02-6.08 3.18-7.887 2.58-6.414-2.13-3.141-10.2 7.23-17.83 18.486-13.61 11.092-16.36-11.135-4.14-14.418 7.92-30.931 20.82-30.931 24.16-0.0003 2.88 11.648 2.34 14.952-0.68 1.5719-1.44 3.45-1.71 4.173-0.6s-4.0506 10.43-10.608 20.72c-13.378 20.99-13.458 27.63-0.1221 10.17 15.547-20.35 14.808-19.71 17.956-15.64 1.551 2.01 2.398 11.02 1.909 20.31l-0.881 16.69 4.628-9.47c2.546-5.21 6.432-13.53 8.637-18.5 7.091-15.97 11.838-9.57 11.902 16.06 0.02 7.83 0.768 13.57 1.663 12.75s4.19-9.94 7.323-20.26zm211.14-8.55c2.3-10.02 2.19-13.32-0.56-15.95-2.91-2.78-4.16-2.07-7.84 4.44-5.41 9.59-3.41 12.4 2.73 3.82 2.48-3.46 5.09-5.78 5.79-5.13 0.7 0.64-2.45 5.48-7.01 10.75-7.64 8.83-7.92 9.77-3.6 12.07 7.12 3.8 7.37 3.55 10.49-10zm-15.31 1.64c1.04 0.59 1.62-2.38 1.3-6.6-0.33-4.22 1.17-9.47 3.32-11.65 2.66-2.71 3-4.49 1.06-5.59-1.62-0.91-4.25 1.35-6.09 5.21-2.91 6.13-5.61 7.41-11.78 5.57-1.09-0.32-2.86-0.45-3.95-0.3-3.25 0.47-2.27-2.19 3.58-9.71 5.23-6.73 5.08-12.75-0.2-7.9-3.84 3.53-11.2 20.93-8.11 19.18 1.52-0.86 2.78-0.15 2.8 1.58 0.03 2.52 0.5 2.49 2.3-0.11 3-4.33 6.05 0.21 4.06 6.06-0.89 2.63 0.02 2.09 2.25-1.31 2.54-3.9 4.37-4.83 5.66-2.91 1.06 1.56 0.64 4.25-0.91 5.97-1.56 1.72-1.98 3.9-0.94 4.86 1.04 0.95 2.31 0.57 2.83-0.84 0.51-1.42 1.79-2.09 2.82-1.51zm-1.41-27.48c-1.68-1.53-8.83 7.17-8.75 10.65 0.03 1.41 2.32-0.14 5.08-3.43s4.41-6.54 3.67-7.22zm-28.64 7.35c0.83-1.23 0.51-2.81-0.72-3.5-1.23-0.7-2.24 0.31-2.24 2.24 0 4.06 0.83 4.41 2.96 1.26zm238.02-20.72c-5.57-15.31-9.17-20.77-6.7-10.14 0.69 2.98 2.62 11.84 4.28 19.7 2.37 11.19 3.56 13.38 5.54 10.14 1.78-2.9 0.85-8.76-3.12-19.7zm-226.17 8.83c1.78-3.14 2.07-5.04 0.63-4.23s-3.42-0.41-4.4-2.72c-1.56-3.68-2.23-3.45-5.44 1.82-5.33 8.77-4.64 11.03 1.76 5.79 5.59-4.57 5.6-4.56 3.62 1.43-2.29 6.92-0.85 6.13 3.83-2.09zm-174.48-0.92c1.771 5.76 6.288 7.47 6.348 2.41 0.02-1.65 0.651-5.17 1.404-7.82 1.012-3.57-0.75-5.91-6.788-9.01-8.114-4.18-8.207-4.16-18.493 3.41-5.686 4.18-10.3 9.32-10.254 11.42 0.057 2.6 1.797 1.7 5.487-2.83 6.18-7.58 10.204-6.7 10.204 2.23v6.14l5.212-5.68 5.213-5.68 1.667 5.41zm410.18-9.63c-0.88-5.62-0.44-11.85 0.98-13.84 2.02-2.83 2.59-2.18 2.62 3.01 0.02 3.64 1.35 6.62 2.95 6.62 1.7 0 2.17-1.76 1.13-4.21-0.98-2.32-2.49-7.47-3.37-11.44l-1.6-7.22-2.35 7.22c-5.23 16.05-6.59 22.79-4.32 21.51 1.29-0.73 2.34 0.9 2.34 3.63s0.73 4.96 1.62 4.96c0.88 0 0.89-4.61 0-10.24zm-251.56-4.21c0-2.09-1.59-1.08-3.77 2.41-4.94 7.91-4.99 11.82-0.08 5.87 2.12-2.57 3.86-6.29 3.85-8.28zm4.93 3.55c-0.81-0.74-2.28 0.59-3.27 2.97-1.43 3.43-1.12 3.71 1.47 1.34 1.8-1.63 2.61-3.57 1.8-4.31zm-127.47-4.52c1.437-3.43-0.195-6.25-3.613-6.25-1.037 0-2.503 2.16-3.26 4.81-1.577 5.52 4.618 6.82 6.873 1.44zm115.12-0.07c3.92 2.22 1.48-4.32-3.55-9.53-5.19-5.37-5.96-5.05-8.22 3.35-0.89 3.31-0.94 4.66-0.11 3.01 2.78-5.55 9.45-3.5 7.85 2.4-0.81 2.98-0.79 4.06 0.05 2.4 0.83-1.67 2.62-2.4 3.98-1.63zm-125.73-3.77c2.04-7.15-2.163-8-5.578-1.13-2.357 4.73-2.23 5.94 0.623 5.94 1.969 0 4.199-2.17 4.955-4.81zm-10.244-1.41c2.202-5.25 1.999-10.63-0.401-10.63-3.2 0-8.849 9.6-7.139 12.13 2.338 3.47 5.744 2.79 7.54-1.5zm-9.442-6.94c3.734-7.5-0.873-10.91-6.143-4.54-4.205 5.09-4.567 6.61-2.1 8.87 3.108 2.85 5.227 1.73 8.243-4.33zm414.75-5.03c-0.99-4.83-2.39-8.25-3.11-7.58-0.73 0.66-0.51 5.15 0.48 9.99 0.99 4.83 2.39 8.24 3.12 7.58 0.72-0.66 0.5-5.16-0.49-9.99zm-424.84-0.91c3.48-5.96 3.427-7.38-0.275-7.38-3.059 0-9.914 6.96-10.065 10.23-0.175 3.78 7.741 1.59 10.34-2.85zm64.631 2.06c0.86-1.27 2.6-1.71 3.87-0.99s3.62-1.16 5.22-4.17c2.78-5.26 2.73-5.29-1.18-0.81-6.12 6.99-4.98 3.08 3.64-12.45 4.25-7.66 8.86-18.52 10.24-24.14 2.26-9.23 2.02-10.22-2.48-10.22-2.76 0-4.97-1.68-4.97-3.78 0-2.75 1.6-3.36 5.91-2.27 3.25 0.82-1.72-2.35-11.04-7.06-9.33-4.7-20.88-12.03-25.67-16.28l-8.711-7.73-5.881 5.49-5.881 5.49 9.202 7.13c8.959 6.93 22.401 13.67 37.831 18.95 4.18 1.43 6.9 3.23 6.06 4.01-2.92 2.66-25.94-6.22-41.793-16.13-18.328-11.46-16.068-12.35-35.806 14.08-7.618 10.19-13.68 16.24-14.47 14.44-0.946-2.16-1.423-1.96-1.567 0.66-0.303 5.49 11.996 15.14 30.027 23.55 10.253 4.79 13.934 7.5 10.516 7.74-8.21 0.57 14.363 6.4 25.583 6.6 5.39 0.1 10.5-0.85 11.35-2.11zm1.69-60.19c0.52-1.42 2.07-2.58 3.44-2.58 1.38 0 2.93 1.16 3.44 2.58 0.52 1.43-1.03 2.59-3.44 2.59s-3.95-1.16-3.44-2.59zm-12.22-4.46c-1.94-2.89 3-5.74 6.5-3.76 2.94 1.67 1.01 6-2.67 6-1.27 0-3-1.01-3.83-2.24zm-10.628-7.39c-0.894-1.33 0.29-2.41 2.629-2.41s3.519 1.08 2.629 2.41c-0.89 1.32-2.08 2.4-2.629 2.4-0.552 0-1.735-1.08-2.629-2.4zm-7.449-6.42c-3.025-2.78-1.915-5.62 2.191-5.62 2.169 0 3.944 1.62 3.944 3.61 0 3.76-3.11 4.78-6.135 2.01zm-43.902 64.8c0.046-1.65-0.955-3.01-2.224-3.01-4.272 0-8.812 7.13-7.117 11.18 1.524 3.63 2.036 3.58 5.469-0.58 2.084-2.52 3.826-5.93 3.872-7.59zm438.32 6.17c-0.84-1.92-1.47-1.35-1.59 1.46-0.12 2.53 0.5 3.96 1.38 3.16 0.87-0.8 0.96-2.88 0.21-4.62zm8.62-21.22c0.03-1.98-1.7-0.5-3.86 3.29-5 8.78-5.03 11.01-0.07 5 2.12-2.57 3.89-6.3 3.93-8.29zm-4.16-3.73c0.9-2.15 0.46-3.11-1.03-2.27-1.43 0.81-2.6 2.49-2.6 3.74 0 3.46 1.88 2.7 3.63-1.47zm-269.52-28.28c7.77-12.98 13.47-24.18 12.68-24.91-3.41-3.13-18.09 2.33-20.77 7.72-1.57 3.14-4.04 5.04-5.5 4.21-1.47-0.83-1.84-0.3-0.84 1.19 1 1.48-1.18 8.11-4.85 14.74-7.98 14.42-8.64 19.01-2.06 14.35 3.4-2.41 3.23-1.8-0.65 2.36l-5.25 5.62 6.56-0.85c5.25-0.67 9.37-5.54 20.68-24.43zm-31.07 5.29c4.45-8.08 7.53-15.22 6.83-15.85-0.7-0.64-3.96 4.07-7.24 10.47-9.21 17.92-10.16 20.07-8.88 20.07 0.66 0 4.84-6.61 9.29-14.69zm10.16-8.19c0-1.32-2.26 1.39-5.03 6.02-2.78 4.64-5.04 9.51-5.04 10.84 0 1.32 2.26-1.39 5.04-6.02 2.77-4.64 5.03-9.51 5.03-10.84zm-128.23-9.03c4.251-5.55 4.643-6.83 1.35-4.41-4.686 3.45-10.842 12.24-8.57 12.24 0.675 0 3.924-3.52 7.22-7.83zm70.968 6.14c-2.37-0.86-2.63-1.84-0.76-2.9 1.75-0.99 0.76-2.77-2.61-4.7-2.98-1.71-4.64-1.94-3.68-0.52 2.38 3.52 0.54 3.26-10.25-1.45-7.74-3.38-8.71-4.62-6-7.68 2.03-2.3 2.12-3.05 0.25-2.02-1.64 0.9-6.09-0.61-9.89-3.34-3.8-2.74-8.372-4.5-10.166-3.91-1.793 0.59 1.125 3.02 6.486 5.4 5.36 2.39 9.16 5.2 8.45 6.26-1.36 2.02 24.65 16.62 29.13 16.34 1.44-0.1 1.01-0.76-0.96-1.48zm373.72-36.71c-3.77-8.02-7.26-14.21-7.75-13.77-0.49 0.45 1.48 7.13 4.38 14.85s4.68 14.58 3.95 15.24c-0.73 0.67-1.32-0.23-1.32-2 0-1.76-0.69-2.58-1.53-1.81s-0.07 3.89 1.71 6.93l3.23 5.54 2.1-5.2c1.46-3.62 0.01-9.64-4.77-19.78zm-371.45 10.8c0-0.62-2.66-2.31-5.91-3.75-5.68-2.52-5.72-2.48-0.82 1.12 5.37 3.94 6.73 4.47 6.73 2.63zm375.8-16.79c-7.84-17.33-9.54-15.77-2.13 1.95 3.13 7.51 6.25 13.13 6.93 12.51s-1.48-7.13-4.8-14.46zm2.47-9.48c-3.14-7.51-6.16-13.22-6.72-12.71-0.57 0.52 1.5 7.11 4.58 14.66 3.09 7.55 6.11 13.27 6.72 12.71 0.62-0.56-1.45-7.16-4.58-14.66zm6.96-5.79c-0.31-5-1.93-11.43-3.6-14.28-4.26-7.3-3.78-9.74 0.83-4.17 6.52 7.9 4.5-0.76-2.58-11.02-6.83-9.91-11.54-13.32-6.51-4.72 1.56 2.67 2.01 6.09 1 7.59-1.06 1.58-0.68 2.07 0.91 1.17 1.62-0.91 2.7 0.67 2.61 3.85-0.08 2.97 0.74 7.56 1.81 10.21 1.93 4.75 1.9 4.75-2.2 0.14-2.29-2.57-4.16-4.06-4.16-3.31 0 2 10.62 23.64 11.6 23.64 0.47 0 0.6-4.1 0.29-9.1zm8.8-61.93c0.25-10.37-1.01-13.53-9.09-22.87-5.16-5.96-15.5-15.51-22.98-21.21-15.34-11.71-54.63-30.09-73.32-34.31-11.94-2.69-12.78-2.53-22.35 4.45-5.47 3.99-12.82 10.07-16.32 13.51l-6.38 6.26h6.94c10.62 0 29.23 6.39 61.02 20.96 34.44 15.78 53.14 28.38 67.94 45.78l10.94 12.85 1.66-6.69c0.91-3.68 1.79-12.11 1.94-18.73zm-16.42-0.09c-2.35-5.6 0.25-8.34 7.9-8.34 5.34 0 6.44 1.04 5.76 5.42-1.03 6.6-11.21 8.78-13.66 2.92zm10.08-0.95c1.94-2.88-3.01-5.73-6.51-3.75-2.94 1.66-1.01 5.99 2.67 5.99 1.28 0 3-1 3.84-2.24zm-27.07-14.28c-4.59-2.71-2.9-13.32 2.25-14.22 2.2-0.38 6.34 0.9 9.2 2.85 4.18 2.83 4.64 4.4 2.3 7.89-3.38 5.06-8.76 6.42-13.75 3.48zm7.46-5.14c0-1.33-1.25-2.41-2.78-2.41-1.54 0-2.06 1.08-1.16 2.41 0.89 1.32 2.14 2.4 2.78 2.4s1.16-1.08 1.16-2.4zm-31.02-12.52c-8.09-7.41 2.63-18.15 11.43-11.47 5.29 4.03 4.77 8.9-1.27 11.86-6.34 3.11-6.34 3.11-10.16-0.39zm10.96-3.84c0.71-1.05-1.27-2.08-4.41-2.3-4.51-0.31-4.89 0.08-1.79 1.87 4.79 2.78 4.63 2.76 6.2 0.43zm-36.37-11.59c-5.29-4.85-1.05-10.58 7.83-10.58 7.81 0 10.93 7.31 4.86 11.38-5.94 3.97-7.59 3.87-12.69-0.8zm11.73-4.56c0-2-2.33-3.61-5.25-3.61-6.48 0-6.96 4.06-0.66 5.56 2.53 0.61 4.9 1.23 5.26 1.38 0.36 0.16 0.65-1.34 0.65-3.33zm-49.77-8.12c-3.76-6.44-3.63-6.95 2.45-9.94 7.42-3.63 16.36 1.04 15.28 7.99-1.13 7.27-13.81 8.66-17.73 1.95zm13.92-3.92c-1.68-4.01-7.7-4.84-10.04-1.37-0.83 1.23 1.17 2.7 4.45 3.28 3.27 0.58 6.21 1.2 6.53 1.38 0.31 0.18-0.11-1.3-0.94-3.29zm89.57 23.08c-11.78-13.44-18.48-18.53-34.81-26.41-11.12-5.37-18.45-9.83-16.28-9.92 5.44-0.22-6.25-6.12-21.63-10.91-11.14-3.47-13.01-3.5-18.12-0.22l-5.7 3.65 7.61 1.74c28.55 6.51 70.16 28.44 90.32 47.59 6.44 6.12 12.05 11.13 12.46 11.13 0.4 0-5.83-7.49-13.85-16.65zm21.76 1.63c-0.63-2.99-1.17-1.11-1.2 4.19-0.03 5.29 0.49 7.74 1.15 5.44 0.65-2.3 0.68-6.63 0.05-9.63zm-7.12 6.97c0-0.46-2.66-2.9-5.91-5.42l-5.92-4.59 5.01 5.42c4.71 5.09 6.82 6.51 6.82 4.59zm-5.46-27.08c-3.5-3.43-8.74-7.28-11.63-8.55-2.89-1.26-0.62 1.54 5.04 6.24 12.03 9.98 15.77 11.29 6.59 2.31zm-18.2-3.39c-10.18-7.85-39.7-22.67-49.95-25.07-3.62-0.85 1.41 2.29 11.17 6.98s17.75 9.08 17.75 9.76c0 0.67-3.49-0.43-7.76-2.45s-8.7-3.62-9.86-3.57c-1.16 0.06 2 2.1 7.01 4.54 5.01 2.45 10.82 3.84 12.92 3.11 2.48-0.88 3.13-0.34 1.87 1.53-1.07 1.58-0.97 2.72 0.22 2.53 5.78-0.92 8.89 0.49 7.16 3.24-1.04 1.65-1.02 2.3 0.03 1.43 1.06-0.86 5.09-0.06 8.97 1.8 10.55 5.04 10.67 4.03 0.47-3.83zm18.28-3.75c-1.86-2.05-5.85-4.86-8.86-6.23-3.28-1.49-2.32-0.03 2.41 3.66 9.05 7.05 11.34 7.96 6.45 2.57zm-20.91-6.59c0-4.62-32.71-21.28-48.31-24.6-11.24-2.4-14.18-2.31-17.01 0.46-2.89 2.83-2.41 3.12 3.05 1.87 6.58-1.51 36.03 9.69 53.07 20.18 9.69 5.96 9.2 5.85 9.2 2.09zm23.66 0.87c0-1.23-3.84-4.67-8.54-7.63l-8.55-5.39 7.73 7.63c8.32 8.23 9.36 8.83 9.36 5.39zm-35.24-16.64c-1.64-2.43-34.08-17.28-37.38-17.11-1.85 0.09 35.05 18.6 37.94 19.02 0.45 0.07 0.2-0.79-0.56-1.91zm12.9-1.85c-7.02-4.97-27.32-14.35-35.5-16.41-3.61-0.9 1.06 2.2 10.38 6.91 9.32 4.7 18.13 9.63 19.58 10.96 1.46 1.33 4.48 2.39 6.72 2.34 3.19-0.06 2.94-0.88-1.18-3.8zm-56.53-0.93c0-1.33-0.52-2.41-1.16-2.41s-1.89 1.08-2.78 2.41c-0.9 1.32-0.38 2.4 1.15 2.4 1.54 0 2.79-1.08 2.79-2.4zm60.47-10.8c0-2.44-31.67-15.69-37.39-15.65-3.59 0.03 1.92 3.3 13.73 8.17 20.43 8.43 23.66 9.45 23.66 7.48zm0-12.2c0-1.47-17.05-8.36-20.29-8.2-2.41 0.11 15.39 9.28 18.32 9.43 1.08 0.05 1.97-0.5 1.97-1.23zm-24.38-9.76c-0.87-0.8-3.14-0.88-5.03-0.19-2.1 0.77-1.48 1.34 1.58 1.46 2.78 0.1 4.33-0.47 3.45-1.27zm23.5-9.15c0-1.93-1.6-2.82-3.72-2.07-3.07 1.08-3.11 1.67-0.22 3.34 1.93 1.12 3.6 2.06 3.72 2.08s0.22-1.49 0.22-3.35zm27.09-50.79c0-1.32-1.15-0.78-2.55 1.2-1.4 1.99-2.55 4.7-2.55 6.02 0 1.33 1.15 0.78 2.55-1.2 1.4-1.99 2.55-4.7 2.55-6.02zm7.87-16.73c0.17-4.138-4.5 2.02-6.29 8.3l-1.72 6.02 3.96-6.02c2.18-3.31 4-7.05 4.05-8.3zm13.42-18c1.63 2.358 2.38 0.294 2.41-6.606 0.02-5.52 0.75-12.021 1.6-14.446 0.92-2.575 0.64-3.375-0.65-1.922-1.22 1.368-4 2.383-6.17 2.255-5.96-0.353-13.16 6.201-13.03 11.881 0.09 4.008 1.14 3.313 5.15-3.382 5.95-9.96 6.76-8.637 1.59 2.617-3.24 7.044-3.16 8.609 0.66 13.288l4.32 5.302 0.88-6.208c0.67-4.745 1.43-5.4 3.24-2.779zm6.82-15.23c-0.73-1.655-1.32-0.301-1.32 3.01 0 3.31 0.59 4.665 1.32 3.009 0.73-1.655 0.73-4.364 0-6.019zm21.92-12.221c0-0.431-3.25-3.41-7.23-6.621l-7.23-5.837 6.38 6.621c5.95 6.189 8.08 7.726 8.08 5.837z"/>
  </g>
  <metadata>
    <rdf:RDF>
      <cc:Work>
        <dc:format>image/svg+xml</dc:format>
        <dc:type rdf:resource="http://purl.org/dc/dcmitype/StillImage"/>
        <cc:license rdf:resource="http://creativecommons.org/licenses/publicdomain/"/>
        <dc:publisher>
          <cc:Agent rdf:about="http://openclipart.org/">
            <dc:title>Openclipart</dc:title>
          </cc:Agent>
        </dc:publisher>
      </cc:Work>
      <cc:License rdf:about="http://creativecommons.org/licenses/publicdomain/">
        <cc:permits rdf:resource="http://creativecommons.org/ns#Reproduction"/>
        <cc:permits rdf:resource="http://creativecommons.org/ns#Distribution"/>
        <cc:permits rdf:resource="http://creativecommons.org/ns#DerivativeWorks"/>
      </cc:License>
    </rdf:RDF>
  </metadata>
</svg>
